#!OML:ASF I:\Actors\actors\Patient Classification 2\Patient 1\Session 1\actor1.ASF
:FULLY-SPECIFIED
:DEGREES
393
root -1.56072 18.5142 3.9271 14.4183 -0.44923 0.281103
lowerback 25.4698 -0.60184 3.70229
upperback 4.02399 0.492933 2.55205
thorax -9.69545 0.149477 0.552621
lowerneck -9.86018 -1.09268 -1.09254
upperneck 1.8895 -1.3855 1.21918
head 2.3205 -0.661922 0.509924
rclavicle 3.18055e-015 7.95139e-015
rhumerus 35.6539 54.636 -77.2752
rradius 141.317
rwrist 3.38953
rhand -32.6466 -19.1684
rfingers 7.12502
rthumb -5.87303 -49.067
lclavicle 3.18055e-015 7.95139e-015
lhumerus 40.4423 -53.5535 71.0698
lradius 142.969
lwrist 17.3875
lhand -23.3954 -57.9655
lfingers 7.12502
lthumb 3.06124 -28.0078
rfemur -27.829 -3.41987 17.1059
rtibia 27.3517
rfoot -20.3745 -6.70858
rtoes -7.22819
lfemur -31.7143 -1.76579 -9.41294
ltibia 30.9716
lfoot -14.5698 7.64856
ltoes -57.2211
394
root -1.53262 18.5063 3.9056 14.4983 -0.240551 0.133221
lowerback 25.7966 -0.653313 4.14996
upperback 3.89777 0.564958 2.47784
thorax -10.0014 0.161428 0.193303
lowerneck -9.71001 -1.09183 -0.961156
upperneck 1.82883 -1.40682 1.34941
head 2.27287 -0.667611 0.528218
rclavicle 0 -5.56597e-015
rhumerus 35.2764 54.7075 -77.6119
rradius 141.299
rwrist 3.91949
rhand -32.9976 -19.129
rfingers 7.12502
rthumb -6.2119 -49.0179
lclavicle 0 -5.56597e-015
lhumerus 40.4235 -53.5974 70.9827
lradius 142.877
lwrist 17.0163
lhand -23.1472 -57.9074
lfingers 7.12502
lthumb 3.30093 -27.9532
rfemur -28.0355 -3.93106 17.2908
rtibia 27.3835
rfoot -20.0526 -6.52996
rtoes -7.47363
lfemur -32.0485 -2.17093 -9.22674
ltibia 31.1346
lfoot -14.5918 7.90723
ltoes -57.2425
395
root -1.53142 18.5049 3.89686 14.5169 0.0681924 0.0543302
lowerback 25.8675 -0.674568 4.29836
upperback 3.92244 0.575264 2.41668
thorax -10.0076 0.160236 0.0364702
lowerneck -9.62002 -1.09107 -0.762988
upperneck 1.72066 -1.43509 1.49042
head 2.22006 -0.676002 0.537835
rclavicle 9.54166e-015 1.35174e-014
rhumerus 35.128 54.643 -77.9367
rradius 141.262
rwrist 4.26703
rhand -33.2312 -19.147
rfingers 7.12502
rthumb -6.43738 -49.0292
lclavicle 9.54166e-015 1.35174e-014
lhumerus 40.6505 -53.6217 70.4476
lradius 142.79
lwrist 16.3069
lhand -23.6453 -57.9481
lfingers 7.12502
lthumb 2.8199 -27.987
rfemur -28.0616 -4.18601 17.4371
rtibia 27.4208
rfoot -20.0607 -6.52707
rtoes -7.50003
lfemur -32.2464 -2.44804 -9.05796
ltibia 31.2756
lfoot -14.6163 7.925
ltoes -57.247
396
root -1.53181 18.5032 3.89034 14.607 0.277484 -0.0424703
lowerback 25.8712 -0.651309 4.39515
upperback 3.93824 0.624064 2.35051
thorax -9.9879 0.178889 -0.109642
lowerneck -9.60655 -1.04855 -0.562726
upperneck 1.65243 -1.40926 1.67518
head 2.19458 -0.655793 0.563488
rclavicle -4.77083e-015 1.19271e-014
rhumerus 35.0008 54.5583 -78.248
rradius 141.244
rwrist 4.58675
rhand -33.3042 -19.1511
rfingers 7.12502
rthumb -6.50787 -49.0311
lclavicle -4.77083e-015 1.19271e-014
lhumerus 40.8119 -53.6206 69.8355
lradius 142.774
lwrist 15.5522
lhand -24.3645 -57.8844
lfingers 7.12502
lthumb 2.12534 -27.9152
rfemur -28.1758 -4.35201 17.5938
rtibia 27.4602
rfoot -20.044 -6.53203
rtoes -7.73697
lfemur -32.4842 -2.61753 -8.88365
ltibia 31.4058
lfoot -14.6262 7.94363
ltoes -57.2465
397
root -1.53117 18.5009 3.88258 14.7187 0.487781 -0.139264
lowerback 25.8921 -0.640803 4.51521
upperback 3.94731 0.663834 2.28074
thorax -9.98456 0.192149 -0.269894
lowerneck -9.64805 -0.993146 -0.356329
upperneck 1.63669 -1.36617 1.83185
head 2.19613 -0.627407 0.579804
rclavicle -9.54166e-015 -5.56597e-015
rhumerus 34.9151 54.5493 -78.4492
rradius 141.243
rwrist 4.98434
rhand -33.4939 -19.3648
rfingers 7.12502
rthumb -6.69099 -49.2391
lclavicle -9.54166e-015 -5.56597e-015
lhumerus 40.9538 -53.5696 69.49
lradius 142.796
lwrist 15.5022
lhand -23.9409 -57.6537
lfingers 7.12502
lthumb 2.53447 -27.689
rfemur -28.3071 -4.46786 17.7375
rtibia 27.4857
rfoot -20.0774 -6.58383
rtoes -7.78821
lfemur -32.7404 -2.7441 -8.7272
ltibia 31.4994
lfoot -14.5704 7.95005
ltoes -57.3223
398
root -1.52691 18.4977 3.87297 14.7866 0.745915 -0.254932
lowerback 25.9674 -0.681516 4.71553
upperback 3.95285 0.663951 2.21375
thorax -10.0137 0.183613 -0.45946
lowerneck -9.66725 -0.941799 -0.206892
upperneck 1.64837 -1.32434 2.03328
head 2.20386 -0.598636 0.620355
rclavicle 5.96354e-015 2.70347e-014
rhumerus 34.7004 54.7418 -78.7149
rradius 141.302
rwrist 5.46792
rhand -33.6677 -19.5995
rfingers 7.12502
rthumb -6.85882 -49.4684
lclavicle 5.96354e-015 2.70347e-014
lhumerus 41.1064 -53.4602 69.2826
lradius 142.819
lwrist 15.6219
lhand -23.2991 -57.3875
lfingers 7.12502
lthumb 3.15425 -27.4311
rfemur -28.3931 -4.61943 17.891
rtibia 27.5057
rfoot -20.1135 -6.60576
rtoes -7.36118
lfemur -32.9813 -2.94099 -8.54985
ltibia 31.6124
lfoot -14.5587 7.98052
ltoes -57.4023
399
root -1.52169 18.4944 3.86452 14.7956 0.960269 -0.406949
lowerback 26.062 -0.722257 4.93121
upperback 3.98587 0.668382 2.14754
thorax -10.0212 0.177147 -0.658664
lowerneck -9.68149 -0.890479 -0.168316
upperneck 1.64989 -1.27665 2.39722
head 2.2102 -0.562805 0.732561
rclavicle -7.15625e-015 7.15625e-015
rhumerus 34.5066 54.9075 -79.0162
rradius 141.347
rwrist 5.82769
rhand -33.6787 -19.4738
rfingers 7.12502
rthumb -6.86937 -49.3423
lclavicle -7.15625e-015 7.15625e-015
lhumerus 41.3587 -53.3324 68.9453
lradius 142.83
lwrist 15.5813
lhand -23.1451 -57.0684
lfingers 7.12502
lthumb 3.30294 -27.1142
rfemur -28.4232 -4.79246 18.0812
rtibia 27.521
rfoot -20.1026 -6.54709
rtoes -7.02757
lfemur -33.1429 -3.15015 -8.33228
ltibia 31.7369
lfoot -14.6188 8.04301
ltoes -57.4192
